<svg xmlns="http://www.w3.org/2000/svg" xmlns:xlink="http://www.w3.org/1999/xlink" viewBox="0 0 2400 1080"><defs><radialGradient id="radial-gradient" cx="36.507" cy="36.507" r="36.507" gradientUnits="userSpaceOnUse"><stop offset="0.02" stop-color="#fff"/><stop offset="0.087" stop-color="#e0e0e0" stop-opacity="0.859"/><stop offset="0.205" stop-color="#afadae" stop-opacity="0.635"/><stop offset="0.324" stop-color="#848282" stop-opacity="0.441"/><stop offset="0.44" stop-color="#615e5f" stop-opacity="0.282"/><stop offset="0.553" stop-color="#464343" stop-opacity="0.159"/><stop offset="0.662" stop-color="#332f30" stop-opacity="0.071"/><stop offset="0.766" stop-color="#272324" stop-opacity="0.018"/><stop offset="0.859" stop-color="#231f20" stop-opacity="0"/></radialGradient><radialGradient id="radial-gradient-2" cx="4509.206" cy="-3459.335" r="391.485" gradientTransform="translate(-2123.199 -3951.078) rotate(90) scale(0.998 0.994)" gradientUnits="userSpaceOnUse"><stop offset="0" stop-color="#fff"/><stop offset="0.373" stop-color="#fefdfd"/><stop offset="0.507" stop-color="#f9f6f6"/><stop offset="0.603" stop-color="#f2ebeb"/><stop offset="0.68" stop-color="#e7dada"/><stop offset="0.746" stop-color="#d9c4c4"/><stop offset="0.805" stop-color="#c8a8a8"/><stop offset="0.858" stop-color="#b38888"/><stop offset="0.907" stop-color="#9b6262"/><stop offset="0.952" stop-color="#803737"/><stop offset="0.993" stop-color="#630909"/><stop offset="1" stop-color="#5d0000"/></radialGradient><symbol id="New_Symbol" data-name="New Symbol" viewBox="0 0 73.014 73.014"><circle cx="36.507" cy="36.507" r="36.507" style="fill:url(#radial-gradient)"/></symbol></defs><g style="isolation:isolate"><g id="Layer_1" data-name="Layer 1"><rect width="2400" height="1084.47"/><path d="M2400,0V1084.47H320.293c62.565-69.9,411.883-101.557,407.086-192.042-2.9-54.675-131.1-54.8-277.6-151.091C197.113,575.277,156.966,298.653,142.313,197.69,132.141,127.552,122.179,59.039,132.65,0Z" style="fill:#01030a"/><path d="M2400,0V1084.47H1617.611c5.446-25.4,5.622-53.024-2.97-83.313-45.312-159.86-291.76-243.271-353.148-264.057-268.937-91.022-360.615,13.175-544.656-72.015-220.55-102.093-317.78-357.663-284.626-554.944A464,464,0,0,1,465.435,0Z" style="fill:#010414"/><path d="M2400,0V1084.47H2295.988C2102,1057.16,1912.269,979.722,1795.608,865.6c-148.639-145.415-105.33-278.658-277.6-355.842-203.684-91.248-393.435,37.124-534.114-70.6-82.841-63.431-97.037-169.18-112.446-283.826C863.912,99.24,863.543,42.56,867.426,0Z" style="fill:#03061e"/><path d="M2400,0V651.388c-108.878,40.328-203.631,54.816-258.272,29.23-87.6-41.007-73.582-185.659-209.078-224.519-86.46-24.8-121.405,25.713-221.376,8.472C1591.379,443.9,1522.928,350.8,1396.779,173.685,1340.5,94.665,1300.867,39.015,1280.135,0Z" style="fill:#04072d"/><path d="M2400,0V410.912c-154.226,69.4-220.779,120.351-288.141,98.845-131.42-41.966-29.921-305.6-198.535-358.666-116.645-36.713-224.7,36.5-360.176-32.477-10.77-5.479-108.369-56.285-100.147-105.9A42.651,42.651,0,0,1,1457.376,0Z" style="fill:#04093a"/><use width="73.014" height="73.014" transform="translate(1226.31 233.147) scale(0.775 0.74)" xlink:href="#New_Symbol"/><use width="73.014" height="73.014" transform="translate(1979.683 728.538) scale(0.57 0.545)" xlink:href="#New_Symbol"/><use width="73.014" height="73.014" transform="translate(860.141 107.392) scale(0.57 0.545)" xlink:href="#New_Symbol"/><use width="73.014" height="73.014" transform="translate(1204.811 413.765) scale(0.57 0.545)" xlink:href="#New_Symbol"/><use width="73.014" height="73.014" transform="translate(839.336 47.751) scale(0.57 0.545)" xlink:href="#New_Symbol"/><use width="73.014" height="73.014" transform="translate(55.679 253.027) scale(0.57 0.545)" xlink:href="#New_Symbol"/><use width="73.014" height="73.014" transform="translate(496.053 490.271) scale(0.57 0.545)" xlink:href="#New_Symbol"/><use width="73.014" height="73.014" transform="translate(328.277 307.906) scale(0.57 0.545)" xlink:href="#New_Symbol"/><use width="73.014" height="73.014" transform="translate(393.928 320.672) scale(0.57 0.545)" xlink:href="#New_Symbol"/><use width="73.014" height="73.014" transform="translate(2021.294 456.588) scale(0.57 0.545)" xlink:href="#New_Symbol"/><use width="73.014" height="73.014" transform="translate(2096.192 410.221) scale(0.57 0.545)" xlink:href="#New_Symbol"/><use width="73.014" height="73.014" transform="translate(640.994 213.266) scale(0.57 0.545)" xlink:href="#New_Symbol"/><use width="73.014" height="73.014" transform="translate(198.078 360.52) scale(0.57 0.545)" xlink:href="#New_Symbol"/><use width="73.014" height="73.014" transform="translate(496.053 318.216) scale(0.57 0.545)" xlink:href="#New_Symbol"/><use width="73.014" height="73.014" transform="translate(348.337 392.986) scale(0.57 0.545)" xlink:href="#New_Symbol"/><use width="73.014" height="73.014" transform="translate(257.154 409.399) scale(0.57 0.545)" xlink:href="#New_Symbol"/><use width="73.014" height="73.014" transform="translate(1603.574 410.221) scale(0.285 0.272)" xlink:href="#New_Symbol"/><use width="73.014" height="73.014" transform="translate(1539.747 499.58) scale(0.285 0.272)" xlink:href="#New_Symbol"/><use width="73.014" height="73.014" transform="translate(755.942 554.932) scale(0.285 0.272)" xlink:href="#New_Symbol"/><use width="73.014" height="73.014" transform="translate(969.714 47.751) scale(0.285 0.272)" xlink:href="#New_Symbol"/><use width="73.014" height="73.014" transform="translate(1658.361 490.271) scale(0.285 0.272)" xlink:href="#New_Symbol"/><use width="73.014" height="73.014" transform="translate(1658.361 559.57) scale(0.285 0.272)" xlink:href="#New_Symbol"/><use width="73.014" height="73.014" transform="translate(580.583 50.771) scale(0.285 0.272)" xlink:href="#New_Symbol"/><use width="73.014" height="73.014" transform="translate(1503.017 77.571) scale(0.285 0.272)" xlink:href="#New_Symbol"/><use width="73.014" height="73.014" transform="translate(919.551 57.691) scale(0.285 0.272)" xlink:href="#New_Symbol"/><use width="73.014" height="73.014" transform="translate(1151.165 77.571) scale(0.285 0.272)" xlink:href="#New_Symbol"/><use width="73.014" height="73.014" transform="translate(997.685 147.153) scale(0.285 0.272)" xlink:href="#New_Symbol"/><use width="73.014" height="73.014" transform="translate(1050.16 203.326) scale(0.285 0.272)" xlink:href="#New_Symbol"/><use width="73.014" height="73.014" transform="translate(809.438 318.216) scale(0.285 0.272)" xlink:href="#New_Symbol"/><use width="73.014" height="73.014" transform="translate(798.496 383.868) scale(0.285 0.272)" xlink:href="#New_Symbol"/><use width="73.014" height="73.014" transform="translate(733.924 47.751) scale(0.285 0.272)" xlink:href="#New_Symbol"/><use width="73.014" height="73.014" transform="translate(929.953 67.631) scale(0.285 0.272)" xlink:href="#New_Symbol"/><use width="73.014" height="73.014" transform="translate(1593.172 779.395) scale(0.285 0.272)" xlink:href="#New_Symbol"/><use width="73.014" height="73.014" transform="translate(1561.964 654.783) scale(0.285 0.272)" xlink:href="#New_Symbol"/><use width="73.014" height="73.014" transform="translate(1679.166 815.725) scale(0.285 0.272)" xlink:href="#New_Symbol"/><use width="73.014" height="73.014" transform="translate(919.551 147.153) scale(0.285 0.272)" xlink:href="#New_Symbol"/><use width="73.014" height="73.014" transform="translate(229.286 243.087) scale(0.285 0.272)" xlink:href="#New_Symbol"/><use width="73.014" height="73.014" transform="translate(1360.387 789.335) scale(0.285 0.272)" xlink:href="#New_Symbol"/><use width="73.014" height="73.014" transform="translate(1257.055 759.514) scale(0.285 0.272)" xlink:href="#New_Symbol"/><use width="73.014" height="73.014" transform="translate(108.437 611.156) scale(0.285 0.272)" xlink:href="#New_Symbol"/><use width="73.014" height="73.014" transform="translate(2062.904 728.538) scale(0.285 0.272)" xlink:href="#New_Symbol"/><use width="73.014" height="73.014" transform="translate(2267.153 768.658) scale(0.285 0.272)" xlink:href="#New_Symbol"/><use width="73.014" height="73.014" transform="translate(2031.696 564.872) scale(0.285 0.272)" xlink:href="#New_Symbol"/><use width="73.014" height="73.014" transform="translate(2073.306 476.469) scale(0.285 0.272)" xlink:href="#New_Symbol"/><use width="73.014" height="73.014" transform="translate(2257.495 261.278) scale(0.285 0.272)" xlink:href="#New_Symbol"/><use width="73.014" height="73.014" transform="translate(2179.874 846.189) scale(0.285 0.272)" xlink:href="#New_Symbol"/><use width="73.014" height="73.014" transform="translate(2334.885 698.473) scale(0.285 0.272)" xlink:href="#New_Symbol"/><use width="73.014" height="73.014" transform="translate(2169.472 544.991) scale(0.285 0.272)" xlink:href="#New_Symbol"/><use width="73.014" height="73.014" transform="translate(2306.246 369.921) scale(0.285 0.272)" xlink:href="#New_Symbol"/><use width="73.014" height="73.014" transform="translate(1349.984 554.932) scale(0.285 0.272)" xlink:href="#New_Symbol"/><use width="73.014" height="73.014" transform="translate(1370.789 380.4) scale(0.285 0.272)" xlink:href="#New_Symbol"/><use width="73.014" height="73.014" transform="translate(1421.851 223.566) scale(0.285 0.272)" xlink:href="#New_Symbol"/><use width="73.014" height="73.014" transform="translate(1008.088 390.341) scale(0.285 0.272)" xlink:href="#New_Symbol"/><use width="73.014" height="73.014" transform="translate(849.43 253.567) scale(0.285 0.272)" xlink:href="#New_Symbol"/><use width="73.014" height="73.014" transform="translate(486.523 76.672) scale(0.285 0.272)" xlink:href="#New_Symbol"/><use width="73.014" height="73.014" transform="translate(672.536 23.786) scale(0.285 0.272)" xlink:href="#New_Symbol"/><use width="73.014" height="73.014" transform="translate(537.663 213.266) scale(0.285 0.272)" xlink:href="#New_Symbol"/><use width="73.014" height="73.014" transform="translate(713.119 117.332) scale(0.285 0.272)" xlink:href="#New_Symbol"/><use width="73.014" height="73.014" transform="translate(2106.594 127.272) scale(0.285 0.272)" xlink:href="#New_Symbol"/><use width="73.014" height="73.014" transform="translate(1808.389 620.557) scale(1.342 1.21)" xlink:href="#New_Symbol"/><use width="73.014" height="73.014" transform="translate(852.744 811.964) scale(1.342 1.21)" xlink:href="#New_Symbol"/><use width="73.014" height="73.014" transform="translate(119.713 107.392) scale(0.285 0.272)" xlink:href="#New_Symbol"/><use width="73.014" height="73.014" transform="translate(426.009 67.631) scale(0.285 0.272)" xlink:href="#New_Symbol"/><use width="73.014" height="73.014" transform="translate(733.924 47.751) scale(0.285 0.272)" xlink:href="#New_Symbol"/><use width="73.014" height="73.014" transform="translate(1039.758 728.538) scale(0.285 0.272)" xlink:href="#New_Symbol"/><use width="73.014" height="73.014" transform="translate(1130.36 644.843) scale(0.285 0.272)" xlink:href="#New_Symbol"/><use width="73.014" height="73.014" transform="translate(119.713 466.528) scale(0.285 0.272)" xlink:href="#New_Symbol"/><use width="73.014" height="73.014" transform="translate(277.205 708.658) scale(0.285 0.272)" xlink:href="#New_Symbol"/><path d="M1228.751,954.668c-151.224,0-273.82-123.05-273.82-274.876,0-151.794,122.6-274.859,273.82-274.859S1502.573,528,1502.573,679.792C1502.573,831.618,1379.976,954.668,1228.751,954.668Z" style="fill:#ff4617"/><path d="M1011.935,512.01a276.088,276.088,0,0,0-32.863,54.911c.218,11.049,2.729,20.96,7.985,26.452,26.133,27.272,60.437-38.02,83.925-7.4,13.008,16.959,9.677,43.929,9.308,63.885-.269,15.167-5.676,64.688,20.022,62.713,13.678-1.039,29.649-8.89,38.22-19.655,7.2-9.039,12.372-20.659,21.246-28.243,18.081-15.435,46.507-7.449,57.271,12.991,7.785,14.75,10.982,34.4,25.029,44.884a39,39,0,0,0,49.571-2.093c15.469-13.644,21.88-37.449,10.446-56-8.671-14.1-22.449-22.667-33.633-34.386-23.872-25.1-6.931-54.577-14.731-85.063-5.073-19.822-32.747-43.629-52.719-26.635-10.38,8.805-19.085,16.171-32.178,20.776-25.363,8.94-64.672,9.994-79.739-18.3-5.006-9.425-16.372-49.269-30.1-56.618C1042.941,476.987,1015.9,503.639,1011.935,512.01Z" style="fill:#b03714;mix-blend-mode:multiply"/><path d="M1426.885,869.42a17.659,17.659,0,0,0-10.547-10.229c-31.641-11.92-56.888,17.428-82.534,29.951-17.261,8.42-47.88,3.029-51.983-19.689-2.477-13.811,5.357-28.326,1.223-41.718-5.959-19.271-21.964-30.136-41.819-31-20.258-.871-78.651,12.806-60.32,44.3,10.3,17.712,28.461,30.52,35.793,50.108,7.149,19.085,5.323,44.129-10.413,58.561-1.373,1.272-2.813,2.461-4.268,3.582,8.8.854,17.712,1.391,26.734,1.391A272.57,272.57,0,0,0,1426.885,869.42Z" style="fill:#b03714;mix-blend-mode:multiply"/><path d="M1494.7,745.4c-12.991-.569-25.413-5.189-34.5-15.569-16.64-19.019-30.8-48.4-54.141-60.018-10.714-5.357-33.348-1.3-31.24,15.235,1.373,10.58,11.335,18.885,17.9,26.518,12.555,14.565,23.822,33.064,11.969,51.831-8.873,14.08-27.991,21.78-40.9,31.641-5.476,4.2-19.989,13.327-19.353,21.713.871,11.569,34.939,8.975,41.937,7.149,27.422-7.131,49.688-27.539,77.662-32.879a37.733,37.733,0,0,1,15.1.067A271.537,271.537,0,0,0,1494.7,745.4Z" style="fill:#b03714;mix-blend-mode:multiply"/><path d="M1445.653,526.073c-.9,11.9-1.341,24.225-6.345,35.274-.8,1.774-2.863,1.774-4.3.685-3.147-2.36-15.636-12.588-16.959-3.615-.988,6.646,1.038,13.795,2.979,20.122a244.259,244.259,0,0,0,19.538,45.973c9.693,17.661,25.163,38.169,46.742,40.681a39.164,39.164,0,0,0,14.766-1.24,273.713,273.713,0,0,0-54.946-149.784A82.583,82.583,0,0,0,1445.653,526.073Z" style="fill:#b03714;mix-blend-mode:multiply"/><path d="M1472.2,559.672c-2.378,3.919-8.957,4.537-12.756,5.76-11.033,3.531-9.643,14.129-6.2,22.767,5.424,13.528,14.884,34.487,30.555,38.02a60.315,60.315,0,0,0,13.743,1.473,273.189,273.189,0,0,0-23.923-70.782A20.5,20.5,0,0,1,1472.2,559.672Z" style="fill:#b03714;mix-blend-mode:multiply"/><path d="M1213.751,922.691c5.308-34.571-18.566-49.99-35.19-75.655-30.319-46.807,57.69-66.563,88.143-48.264,10.245,6.144,19.873,16.524,22.031,28.812,2.578,14.748-8.4,39.275,3.7,50.391,32.31,29.7,65.591-20.709,98.823-25.715,14.983-2.242,31.508.586,39.359,13.226a275.921,275.921,0,0,0,46.307-69.56,29.838,29.838,0,0,0-4.755-.1c-13.627.888-26.066,7.015-38,13.293-24.107,12.723-46.473,25.128-74.615,20.441-10.816-1.809-27.858-8.337-18.165-22,11.016-15.552,29.8-25.262,45.1-35.91,22.887-15.9,19.37-37.6,2.094-57.273-8.505-9.659-27.373-26.735-16.693-41.133,12.34-16.624,30.956-13.979,45.37-1.589,19.236,16.556,31.173,39.124,48.717,57.12,7.467,7.669,18.549,11.4,29.85,11.618a276.822,276.822,0,0,0,6.747-60.6c0-3.232-.134-6.446-.235-9.678a36.794,36.794,0,0,1-22.735-1.707c-23.22-9.458-37.182-27.974-47.93-49.655-8.4-16.958-21.009-39.743-19.772-59.365.972-15.166,13.946-9.458,22.686-3.65,2.979-11.1,2.628-34.5,8.3-47.109a268.354,268.354,0,0,0-17.727-20.241,44.93,44.93,0,0,0-10.782-.468c-19.169,1.742-19.152,17.445-26.285,30.921-10.195,19.286-39.508,31.322-60.57,32.611-23.755,1.458-41.384-10.462-55.431-28.929-14.145-18.6-27.053-55.2-55.2-54.374-18.064.535-23.236,10.881-37.736,17.879-7.733,3.733-17.712,1.64-25.027-2.01-17.143-8.537-19.739-35.942-32.831-49.2a75.392,75.392,0,0,0-5.791-5.256,274.59,274.59,0,0,0-51.916,31.1c4.5,3.4,8.388,8.807,11.335,14.431,13.36,25.514,17.294,60.12,52.484,64.188,18.984,2.192,43.528-3.215,58.459-15.938,7.067-5.993,14.3-15.2,24.393-15.587,25.732-1,44.984,16.574,49.906,40.765,2.746,13.545,3.4,27.456.92,41.016-4.234,23.2,8.957,35.709,24.846,49.757,17.527,15.5,34.42,37.1,25.814,62.26-6.864,20.122-26.653,36.763-48.834,34.454-25.749-2.645-36.781-23.438-45.62-45.186-7.7-18.934-30.185-41.183-51.045-23.371-10.4,8.873-15.166,22.116-24.71,31.693-10.581,10.647-33.65,24.324-49.47,17.36-12.79-5.626-16.039-20.592-17.128-33.281-1.806-20.793.386-41.67-.552-62.513-.4-9.274-.653-20.273-5.389-28.577-8.79-15.386-26.737-4.588-37.518,2.813-16.557,11.35-39.812,18.364-52.033-3.483a43.772,43.772,0,0,1-4.469-14.949,274.67,274.67,0,0,0-20.056,103.277c0,3.967.134,7.884.3,11.786,6.631-13.963,23.975-24.176,37.686-28.7,10.6-3.5,31.809-7.449,38.723,5.441,6.746,12.523,3.934,28.194,4.018,41.8.117,20.61,5.591,41.218,24.559,52.551,23.521,14.047,43.259-11.435,61.273-23.07,14.1-9.106,29.414-9.358,38.488,6.781,8.622,15.336.134,56.736-19.051,61.44-13.661,3.348-30.052-.032-42.875,5.961-21.73,10.163-2.462,28.427,9.878,34.989,15.921,8.438,44.966,17.411,49.821,37.736,7.367,30.82-19.736,41.568-47.611,41.081a271.279,271.279,0,0,0,83,24.695C1203.707,945.542,1211.675,936.235,1213.751,922.691Z" style="fill:#e0001d;mix-blend-mode:multiply"/><path d="M1147.658,909.784c23.168-29.9-24.51-46.96-43.7-57.623-11.585-6.429-32.025-24.779-16.556-38.758,9.392-8.487,23.153-7.935,35.006-8.737,7.735-.537,18.148-.287,22.936-7.619a69.766,69.766,0,0,0,9.843-22.349c3.684-16.189-1.574-45.8-23.772-33.784-8.555,4.62-15.787,11.132-23.488,16.992-13.845,10.546-31.156,20.325-48.116,10.212-29.565-17.662-29.614-45.82-29.815-76.575-.067-10.061.352-24.76-13.125-26.3-8.271-.953-16.675.839-24.259,4.17-12.372,5.424-28.528,14.5-33.047,28.226-.586,1.774-2.461,1.724-3.934.886A274.911,274.911,0,0,0,1100.3,922.557C1118.578,924.784,1138.282,921.887,1147.658,909.784Z" style="fill:#b03714;mix-blend-mode:multiply"/><path d="M1139.537,452.579c6.6,13.961,17.68,41.1,38.623,27.2,9.978-6.629,15.988-13.98,28.175-16.391,59.583-11.768,59.565,89.851,119.566,82.569,16.742-2.01,43.093-9.71,53.07-24.342,6.748-9.91,7.6-22.216,15.636-31.339,6.33-7.183,15.068-8.79,24.443-8.02a272.941,272.941,0,0,0-298.631-54.928A78.37,78.37,0,0,1,1139.537,452.579Z" style="fill:#b03714;mix-blend-mode:multiply"/><path d="M1190.983,607.871c6.345-2.412,12.422-3.065,18.717-.269,3.952,1.759,6.11,5.424,7.985,9.059,1.139,2.259,1.708,4.77,2.663,7.1q12.478,7.107,15.453-4.168c15.015-37.166-15.47-65.978-50.358-58.11-1.96,1.255-3.9,2.445-5.827,3.533a80.861,80.861,0,0,1-34.621,10.262c-24.158,1.891-55.163-.987-69.275-23.89-8.22-13.326-21.864-44.867-42.273-27.774-6.528,5.476-17.443,17.126-10.094,27.306,3.449,4.738,9.291.9,13.125.267a78.856,78.856,0,0,1,16.591-1.389c27.974,1.339,42.455,22.852,42.254,49.923-.1,14.783-1.574,49.017,18.917,52.852,10.012,1.841,19.706-4,27.591-9.576C1157.786,631.777,1172.45,614.835,1190.983,607.871Z" style="fill:#b03714;mix-blend-mode:multiply"/><path d="M1286.458,695.059a2.12,2.12,0,0,1,1.859-1.39c5.139-14.229.687-33.163-13.578-39.693-12.605-5.758-36.226,1.222-35.875,18.064C1239.315,692.949,1274.875,725.478,1286.458,695.059Z" style="fill:#b03714;mix-blend-mode:multiply"/><path d="M1264.8,871.177c-1.373-9.591,1.206-37.768-15.336-36.864-15.418.854-30.619,10.983-24.391,28.629,6.094,17.294,24.777,27.556,29.966,44.632a34.16,34.16,0,0,1-1.406,23.537c-2.662,6.313-9.927,16.04-9.459,23.1a271.9,271.9,0,0,0,167.1-69.728c-12.538-3.716-28.577-2.611-37.817.8-20.058,7.4-35.358,24.426-57.14,27.908C1287.413,917.819,1268.864,899.287,1264.8,871.177Z" style="fill:#b03714;mix-blend-mode:multiply"/><path d="M1451.428,740.88c-6.7-9.09-26.452-54.325-41.15-41.987-15.537,13.025,20.189,40.481,29.649,47.244,14.313,10.163,30.318,19.655,47.243,24.559,1.039-2.962,2.009-5.96,2.947-8.989C1475.117,759.8,1460.737,753.486,1451.428,740.88Z" style="fill:#b03714;mix-blend-mode:multiply"/><path d="M1113.505,892.958c4.954-19.989-34.1-37.031-46.893-44.046-16.859-9.275-31.105-19.236-42.623-34.89-11.687-15.9-6.179-34.385-5.776-52.432.352-14.683-2.83-36.865-22.551-34.488-12.774,1.541-25.2,10.078-32.06,21.161a275.022,275.022,0,0,0,93.082,145.281C1077.511,899.621,1110.306,905.916,1113.505,892.958Z" style="fill:#b03714;mix-blend-mode:multiply"/><path d="M1127.818,780.255c.8-.853,6.5-.15,7.064-1.155a1.87,1.87,0,0,1,1.022-2.242,13.667,13.667,0,0,0,.737-5.526c-.2-2.578-1.205-6.663-4.5-6.646-5.224.017-14.783,5.308-12.924,11.887,1.455,5.172,10.647,11.016,14.4,8.822C1132.455,784.425,1126.8,781.344,1127.818,780.255Z" style="fill:#b03714;mix-blend-mode:multiply"/><path d="M1292.553,494.432c5.525,4.971,13.258,8.153,20.825,7.5,10.247-.905,1.574-12.105-.2-15.5-2.512-4.839-7.382-12.355-6.043-18.248,1.791-8.035,7.584-16.307.886-23.706-4.62-5.139-10.195-9.225-15.854-13.125-7.515-5.156-23.587-14.1-30.87-24.459a272.971,272.971,0,0,0-102.742,7.2c2.178,10.766,10.715,22.049,20.358,25.632,21.612,8,39.827-13.762,61.34-11.283C1278.523,432.84,1269.617,473.738,1292.553,494.432Z" style="fill:#b03714;mix-blend-mode:multiply"/><path d="M1345.606,450.5c-3.047,8.655-12.355,13.577-2.143,22.951,7.517,6.864,22.685,15.7,32.328,7.116,11.585-10.3,3.381-8.02,5.591-16.089a12.661,12.661,0,0,1,6.7-8.119,272.283,272.283,0,0,0-75.755-38.3C1328.5,428.856,1349.055,440.674,1345.606,450.5Z" style="fill:#b03714;mix-blend-mode:multiply"/><path d="M1095.273,861.668c3.047-8.421-3.615-17.26-10.128-21.83-3.115-2.175-6.614-4.185-10.413-4.855-.888-.1-1.776-.2-2.662-.3,1.507.119,1.624.1.352-.015a16.212,16.212,0,0,0-4.1-.235c-3.18.334-5.993,1.272-8.186,3.717a9.669,9.669,0,0,0-2.444,6.73c-1.775,3.566.2,8.488,2.511,11.618,3.683,5.006,9.559,8.119,15.251,10.346C1082.75,869.705,1092.009,870.692,1095.273,861.668Z" style="fill:#b03714;mix-blend-mode:multiply"/><path d="M1111.328,882.228c3.684-2.8,3.264-7.082.955-10.264a7.27,7.27,0,0,0-5.107-4.2c-.485-.084-.988-.15-1.49-.234-.285-.033-2.059-.869-1.037-.318-4-2.192-9.393-.284-9.845,4.588C1094.085,879.749,1104.28,887.618,1111.328,882.228Z" style="fill:#b03714;mix-blend-mode:multiply"/><path d="M1043.51,799.759c3.783-3.5,2.578-9.324,0-13.075-2.563-3.734-7.7-6.879-12.306-6.377-3.733.4-6.663,2.359-7.032,6.394-.435,4.7,2.8,8.706,6.6,11.217a17.918,17.918,0,0,0,4.286,3.1A7.094,7.094,0,0,0,1043.51,799.759Z" style="fill:#b03714;mix-blend-mode:multiply"/><path d="M1155.19,848.644c4.42-1.774,7.317-3.884,9.593-8.2,2.327-4.436.018-10.33-2.545-14.012-5.14-7.5-15.15-10.816-23.805-9.376a17.305,17.305,0,0,0-9.794,5.107,6.991,6.991,0,0,0-1.356,2.042,11,11,0,0,0-2.613,5.575c-1.237,7.383,5.76,13.392,11.5,16.389C1141.5,848.962,1149.348,850.954,1155.19,848.644Z" style="fill:#b03714;mix-blend-mode:multiply"/><path d="M1254.181,896.239a6.446,6.446,0,0,0,1.507-2.661,4.072,4.072,0,0,0,3.969-4.956c-.6-2.947-3.2-4.6-5.993-4.872-3.768-.368-6.832-1.606-10.7-.72-4.086.955-3.984,5.86-1.975,8.589.836,1.138,1.623,2.294,2.528,3.348C1246.23,898.131,1251,899.589,1254.181,896.239Z" style="fill:#b03714;mix-blend-mode:multiply"/><path d="M1282.408,934.845c3.013-1.272,5.557-3.014,6.965-5.458,2.628-4.553,2.091-8.387-.772-12.739-7.918-11.887-30.552-12.338-41.937-3.148-4.469,1.456-7.315,4.554-6.411,10.245-1.807,10.648,8.923,20.627,19.286,21.2C1267.474,945.376,1277.033,941.257,1282.408,934.845Z" style="fill:#b03714;mix-blend-mode:multiply"/><path d="M1338.877,914.973c1.205-6.345-5.693-11.87-11.452-11.752a6.64,6.64,0,0,0-5.542,2.9,6.393,6.393,0,0,0-1.087.6,4.392,4.392,0,0,0-.687.552,5.791,5.791,0,0,0-.753.6.722.722,0,0,1,.117.066c-2.294,2.913-1.389,7.751,1.908,10.129,2.6,1.858,5.124,2.46,8.153,3.113C1334.322,922.206,1337.972,919.694,1338.877,914.973Z" style="fill:#b03714;mix-blend-mode:multiply"/><path d="M1358.363,874.594a12.809,12.809,0,0,0,5.659-12.59,9.654,9.654,0,0,0-.385-1.155,4.9,4.9,0,0,0-1.859-6.211c-10.162-7.265-37.282-2.244-30.5,14.448C1335.393,879.214,1350.21,880.135,1358.363,874.594Z" style="fill:#b03714;mix-blend-mode:multiply"/><path d="M1211.709,784.809c9.124-2.394,4.086-15.367-3.281-16.439a36.976,36.976,0,0,0-3.751-.42c-.787-.334-1.589-.651-2.393-.9-2.578-.82-6.245.519-7.049,3.281a10.672,10.672,0,0,0,3.4,11.469c.251.233.485.485.72.685a11.423,11.423,0,0,0,8.238,2.73A14.28,14.28,0,0,0,1211.709,784.809Z" style="fill:#b03714;mix-blend-mode:multiply"/><path d="M1070.647,727.136a13.894,13.894,0,0,0,9.844-13.41,17.629,17.629,0,0,0-2.378-8.689c-2.745-6.144-10.43-11.467-15.084-14.3-8.738-5.34-21.395-9.29-29.481-.769-8.354,8.806,1.908,21.312,8.019,27.489C1048.531,724.523,1060.752,729.88,1070.647,727.136Z" style="fill:#b03714;mix-blend-mode:multiply"/><path d="M1029.4,636c4.236-.569,6.747-2.36,8.756-6.161,2.745-5.189-.636-11.786-3.716-15.938a23.7,23.7,0,0,0-16.658-9.727c-4.236-.418-7.985,2.4-9.727,6.045-1.222,2.561-.988,5.792-.5,8.5a24.008,24.008,0,0,0,4.218,9.258,14.51,14.51,0,0,0,8.5,5.592,10.5,10.5,0,0,0,.9.552A14.315,14.315,0,0,0,1029.4,636Z" style="fill:#b03714;mix-blend-mode:multiply"/><path d="M998.893,703.163a5.372,5.372,0,0,0,2.479-1.776c2.577-3.2.886-7.884-2.044-10.212a11.445,11.445,0,0,0-2.058-1.255,7.3,7.3,0,0,0-8.1-.837,4.7,4.7,0,0,0-.518.4,6.045,6.045,0,0,0-2.914,3.331c-2.309,6.179,3.8,11.335,9.358,11.62A5.8,5.8,0,0,0,998.893,703.163Z" style="fill:#b03714;mix-blend-mode:multiply"/><path d="M1179.5,931.53a20.636,20.636,0,0,0,9.191,1.724c7.584-.569,14.732-5.441,12.857-13.961-1.708-7.752-8.99-12.691-16.1-14.8a16.831,16.831,0,0,0-6.948-.469c-5.341-.5-10.4,1.222-12.808,6.529-2.812,6.179,1.658,13.377,6.6,16.926.384.284.786.536,1.188.821A19.994,19.994,0,0,0,1179.5,931.53Z" style="fill:#b03714;mix-blend-mode:multiply"/><path d="M1038.737,544.1c7.166-1.807,12.389-8.052,12.088-15.351.8-1.473,1.556-2.947,2.276-4.386,2.076-4.152,4.32-8.623,3.365-13.426-1.222-6.045-7.767-12.154-14.245-11.469-5.978.619-9.829,3.432-13.847,7.768-4.653,5.057-10.9,14.566-10.462,21.814C1018.582,539.868,1028.307,546.732,1038.737,544.1Z" style="fill:#b03714;mix-blend-mode:multiply"/><path d="M1018.916,575.342a18.413,18.413,0,0,0,2.126-2.009c2.41-2.846,1.507-7.132-.6-9.844-2.378-3.046-8.388-5.96-11.954-2.929a18.382,18.382,0,0,0-2.16,1.975c-1.791,2.026-1.891,5.592-.6,7.9a11.559,11.559,0,0,0,4.954,5.022C1012.906,576.564,1016.823,577.183,1018.916,575.342Z" style="fill:#b03714;mix-blend-mode:multiply"/><path d="M1113.32,486.093a6.985,6.985,0,0,0,3.365-6.8c3.5-3.818,5.944-8.556,6.194-12.607.519-8.253-8.639-14.448-16.206-11.87a22.013,22.013,0,0,0-11.115,8.789,15.667,15.667,0,0,0-2.561,7.317c-2.044,5.055-.871,10.7,4.654,13.978a10.722,10.722,0,0,0,5.224,1.458C1106.339,487.734,1110.424,487.952,1113.32,486.093Z" style="fill:#b03714;mix-blend-mode:multiply"/><path d="M1102.556,542.763a6.932,6.932,0,0,0-.821-3.516c-1.139-5.156-8.4-8.6-12.841-5.758-5.993,3.85-1.321,13.409,4.722,14.164a18.983,18.983,0,0,0,3.214.3A5.613,5.613,0,0,0,1102.556,542.763Z" style="fill:#b03714;mix-blend-mode:multiply"/><path d="M1167.73,727.336c-.435-2.444-1.925-3.615-3.583-5.223-2.645-2.561-8.287-1.774-8.472,2.494a7.378,7.378,0,0,0,2.73,6.129,5.1,5.1,0,0,0,3.382,1.255C1164.917,732.879,1168.533,731.488,1167.73,727.336Z" style="fill:#b03714;mix-blend-mode:multiply"/><path d="M1315.706,839.269c5.558.252,15.1-2.779,14.966-9.844-.133-7.784-6.411-12.773-13.191-15.319-5.892-2.227-13.444-3.7-18.668.621a10.645,10.645,0,0,0-1.205.351c-6.73,2.762-6.377,10.73-2.209,15.736a20.276,20.276,0,0,0,6.027,4.839,14.2,14.2,0,0,0,3.214,1.891,14.022,14.022,0,0,0,5.457,1.089A46.714,46.714,0,0,0,1315.706,839.269Z" style="fill:#b03714;mix-blend-mode:multiply"/><path d="M1222.876,607.218a7.968,7.968,0,0,0-3.533-6.965c-.284-.3-.586-.587-.871-.837-2.41-1.959-6.612-3.147-9.375-1.106-.05.035-.1.084-.149.119-4.1,3.014-3.115,8.99.735,11.87a10.866,10.866,0,0,0,7.166,2.41C1220,612.524,1222.659,610.566,1222.876,607.218Z" style="fill:#b03714;mix-blend-mode:multiply"/><path d="M1223.629,954.668c-151.225,0-273.8-123.05-273.8-274.876,0-151.794,122.58-274.859,273.8-274.859S1497.451,528,1497.451,679.792C1497.451,831.618,1374.853,954.668,1223.629,954.668Z" style="mix-blend-mode:multiply;fill:url(#radial-gradient-2)"/><path d="M1234.025,557.6c2.862-1.439,4.27-5.056,4.436-8.053.235-3.984-1.69-7.381-3.732-10.613-2.781-4.4-8.371-8.487-13.678-8.606a12.806,12.806,0,0,0-7.384,1.106c-4.4,2.009-5.34,6.964-4.687,11.3.67,4.6,4.5,8.938,7.785,11.952C1221.57,559.1,1228.165,560.592,1234.025,557.6Z" style="fill:#e9311f;mix-blend-mode:screen"/><path d="M1370.417,604.254c4.236-2.712,3.331-7.349.636-10.663a9.133,9.133,0,0,0-4.353-3.365,6.127,6.127,0,0,0-1.071-.352.634.634,0,0,0-.168-.051,7.083,7.083,0,0,0-2.21-.184c-2.477-.385-4.9.4-6.043,3.014a7.153,7.153,0,0,0-.084,5.006,8.2,8.2,0,0,0,1.675,3.448C1361.427,604.689,1366.4,606.832,1370.417,604.254Z" style="fill:#e9311f;mix-blend-mode:screen"/><path d="M1321.833,578.958c4.387-1.055,5.592-5.306,5.241-9.258-.352-3.9-3.3-6.73-5.909-9.242-3.35-3.214-6.731-5.34-11.486-5.775a10.285,10.285,0,0,0-7.733,3.281c-2.027,2.21-2.395,5.508-1.792,8.321a14.708,14.708,0,0,0,11.284,10.933,15.074,15.074,0,0,0,1.507.7A14.487,14.487,0,0,0,1321.833,578.958Z" style="fill:#e9311f;mix-blend-mode:screen"/><path d="M1332.013,514.789c0-8.086-14.416-12.691-14.416-3.382C1317.6,519.493,1332.013,524.1,1332.013,514.789Z" style="fill:#e9311f;mix-blend-mode:screen"/><path d="M1341.119,758.475c1.96-2.108,2.16-5.139,1.725-7.817-.821-4.939-4.536-9.259-7.953-12.674-3.984-3.984-10.965-7.834-16.725-5.508a10.253,10.253,0,0,0-6.913,9.175c-.384,5.59,3.8,11.45,8.756,13.677a8.456,8.456,0,0,0,1.156.452c2.828,2.561,6.26,4.9,10.027,5.375C1334.891,761.623,1338.375,761.372,1341.119,758.475Z" style="fill:#e9311f;mix-blend-mode:screen"/><path d="M1368.039,675.874c0-7.066-12.556-11.083-12.556-2.964C1355.483,679.958,1368.039,683.976,1368.039,675.874Z" style="fill:#e9311f;mix-blend-mode:screen"/><path d="M1392.85,747.677c2.126-2.863,2.294-6.278,1.708-9.659-1-5.777-4.922-10.548-9.124-14.364-2.9-2.613-7.869-4.253-11.887-3.132a7.3,7.3,0,0,0-1.591-.033c-3.415.4-6.612,2.109-7.649,5.659-1.692,5.808,1.287,11.284,4.821,15.721,3.231,4.083,8,8.354,13.359,9.123C1386.305,751.527,1390.373,751.025,1392.85,747.677Z" style="fill:#e9311f;mix-blend-mode:screen"/><g style="mix-blend-mode:screen"><path d="M1351.047,492.573c-.033-.017-.05-.066-.084-.1-.2-.2-.384-.368-.535-.519C1350.579,492.121,1350.762,492.289,1351.047,492.573Z" style="fill:#e9311f"/><path d="M1373.413,488.221c.184-5.525-3.6-10.13-8.319-12.489a13.942,13.942,0,0,0-7.267-1.491c-.233-.134-.451-.318-.7-.451-4.754-2.244-11.217.25-11.568,6.01-.3,5,1.992,9.24,5.407,12.672a17.4,17.4,0,0,0,1.323,1.206,18.8,18.8,0,0,0,11.066,4.035A9.593,9.593,0,0,0,1373.413,488.221Z" style="fill:#e9311f"/><path d="M1350.428,491.953c-.636-.619-.47-.468,0,0Z" style="fill:#e9311f"/></g><path d="M1336.148,475.146c0-6.815-12.155-10.7-12.155-2.83C1323.993,479.113,1336.148,483,1336.148,475.146Z" style="fill:#e9311f;mix-blend-mode:screen"/><path d="M1279.03,253.467a9.458,9.458,0,0,1,.981,2.119c-.309.351-.609.7-.913,1.04a40.27,40.27,0,0,1,14.816,7.2c.191.138.383.284.554.435a36.375,36.375,0,0,1,8.067,8.951,44.187,44.187,0,0,1,3.792,7.3c.2.494.4,1,.6,1.525q.308.835.6,1.7c.16.482.315.973.47,1.465,0,0,1.576,7.373,3.624,16.186l.017,21.459.006,6.587,0,3.7.036,38.958a10.055,10.055,0,0,1-10.048,10.07l-35.759.027-108.3.089-27.766.024a10.065,10.065,0,0,1-10.069-10.047l-.016-19.783-.026-26.7-.037-50.2v-.391l-.013-18.163,0-.007-.041-44.156-.009-12.431a10.051,10.051,0,0,1,10.049-10.062l24.078-.021.007,0,14.54-.006,11.3-.011,8.774-.008,69.241-.058.007,0,.744.006.007,0,12.11-.015,7.944,0,8.056,0,15.017-.012a10.054,10.054,0,0,1,10.062,10.049l-7.594,72.374-.093.888c-.2-.206-.394-.407-.587-.609C1296.833,266.132,1296.594,262.343,1279.03,253.467Z" style="fill:#fff;stroke:#000;stroke-linecap:round;stroke-miterlimit:10;stroke-width:2.5705750204625515px"/><path d="M1331.237,386.379a255.939,255.939,0,0,1-22.408,23.148q-1.428,1.265-2.852,2.457l-.7.581a63.285,63.285,0,0,1-8.472,6l-.021.014c-.727.421-1.436.8-2.127,1.119,0,0-25.243,18.733-39.332,33.384l-.024.031c-.477.486-.938.975-1.377,1.458-3.333,3.584-5.88,6.866-7.081,9.489,0,0-9.989-3.451,2.057-17.278,0,0-11.315,6.626-15.283,18.685,0,0-9.52-1.562-2.641-13.237-2.648,3.207-5.19,6-6.013,6-.447,0-.794-.015-1.056-.037-.87-.082-.872-.233-.872-.233a29.174,29.174,0,0,1,1.775-13.293l-3.107,4.414s-3.456,3.2.164-10.4l-20.2.02c3.636,13.6.195,10.4.195,10.4l-3.12-4.406a29.168,29.168,0,0,1,1.8,13.291s-.005.265-1.945.269c-.822,0-3.365-2.788-6.016-5.985,6.909,11.666-2.629,13.239-2.629,13.239-3.976-12.054-15.294-18.659-15.294-18.659,12.063,13.805,2.07,17.271,2.07,17.271a17.353,17.353,0,0,0-.909-1.692c-.094-.165-.2-.335-.31-.5-.4-.637-.873-1.311-1.388-2-.307-.409-.63-.821-.964-1.238-1.28-1.595-2.789-3.293-4.478-5.061-.2-.213-.418-.433-.633-.659l-.021-.018c-.432-.454-.878-.9-1.335-1.364-.014-.021-.033-.031-.047-.051-1.376-1.369-2.833-2.77-4.341-4.181-.131-.123-.264-.254-.4-.374-.66-.613-1.33-1.23-2.014-1.844-.343-.31-.686-.621-1.02-.926-.96-.855-1.938-1.721-2.913-2.572-4.343-3.789-8.8-7.475-12.81-10.7q-.757-.6-1.485-1.187c-.246-.194-.485-.39-.722-.578q-1.08-.858-2.1-1.653c-.915-.724-1.8-1.41-2.622-2.047-.258-.207-.512-.4-.766-.591-4.005-3.1-6.61-5.034-6.61-5.034-.312-.144-.619-.3-.937-.462-.29-.15-.589-.305-.883-.47a.185.185,0,0,0-.067-.037l-.009,0-.143-.08c-.229-.135-.466-.268-.7-.41-1.257-.747-2.562-1.609-3.88-2.571-.358-.25-.713-.517-1.075-.782-.4-.3-.809-.6-1.2-.923s-.81-.634-1.213-.959-.816-.656-1.224-1c-.145-.118-.281-.232-.426-.35-.241-.2-.482-.407-.733-.616-.488-.429-.993-.862-1.494-1.3-.771-.668-1.532-1.356-2.3-2.058-.506-.464-1.013-.929-1.514-1.4s-1-.947-1.5-1.423-.987-.951-1.471-1.421c-.442-.435-.874-.864-1.307-1.293q-.429-.417-.836-.842c-.235-.237-.47-.474-.7-.7-.439-.451-.875-.895-1.3-1.333-2.035-2.093-3.908-4.088-5.533-5.858-.183-.2-.357-.386-.53-.577-.415-.45-.81-.889-1.182-1.3-.232-.254-.454-.5-.674-.745-1.725-1.924-2.948-3.344-3.485-3.975a1.058,1.058,0,0,1-.1-.109c-.083-.1-.143-.167-.179-.213l-.035-.038c-3.329-10.584,8.336-52.931,11.2-55.8s11.86-45.421,11.86-45.421c.166-.542.342-1.079.522-1.6a46.461,46.461,0,0,1,3.849-8.576c12.276-21.191,35.735-19.84,35.735-19.84l3.265,0,1.908,0,7.72-.006,9.749,0,.008,0,83.505-.075,6.292,0a27.841,27.841,0,0,1,3.066.053c.839.059,1.83.147,2.934.3a43.907,43.907,0,0,1,5.258,1.032,40.27,40.27,0,0,1,14.816,7.2c.191.138.383.284.554.435a40.906,40.906,0,0,1,12.457,17.775q.308.835.6,1.7c.16.482.315.973.47,1.465,0,0,1.576,7.373,3.624,16.186,2.86,12.345,6.649,27.5,8.319,29.2l.009,0C1322.814,333.457,1334.533,375.787,1331.237,386.379Z" style="fill:#fff"/><path d="M1280.011,255.586c-.309.351-.609.7-.913,1.04-.131.157-.264.307-.4.456q-3.029,3.4-6.031,6.389c-61.04,60.685-112.178-7.783-112.178-7.783.022-.118.045-.236.075-.356,0-.008,0-.017.006-.034.453-1.677,2.01-3.066,4.506-4.21l9.593-.047,90.7-.436,9.123-.043a6.125,6.125,0,0,1,4.533,2.905A9.458,9.458,0,0,1,1280.011,255.586Z" style="fill:#fff;stroke:#000;stroke-miterlimit:10;stroke-width:0.9982477074044579px"/><path d="M1289.076,212.711c-.951,12.31-6.171,25.96-14.579,37.851-1.141,1.616-2.34,3.2-3.591,4.734-.29.362-.589.717-.882,1.064a75.307,75.307,0,0,1-24.943,19.71c-.008,0-.013.011-.021.013a58.084,58.084,0,0,1-25.011,5.771c-21.043.02-39.291-11.106-51.763-26.528q-1.685-2.065-3.208-4.238c-8.263-11.683-13.365-25.3-14.172-38.26a60.768,60.768,0,0,1,2.814-22.49l.007,0c8.752-27.088,35.94-46.625,66.2-46.651a71.487,71.487,0,0,1,25.214,4.6c19.444,7.3,35.157,22.718,41.308,41.944A58.577,58.577,0,0,1,1289.076,212.711Z" style="fill:#fff;stroke:#000;stroke-miterlimit:10;stroke-width:2.9947431222133742px"/><path d="M1275.394,223.646c.025,30.468-38.985,55.2-55.122,55.213-19.475.016-55.187-24.654-55.213-55.122s-1.557-56.729,55.122-55.213C1272.547,169.925,1275.369,193.178,1275.394,223.646Z"/><path d="M1255.814,187.328s18.582,27.823,7.97,48.247C1263.784,235.575,1280.47,214.471,1255.814,187.328Z" style="fill:#fff"/><path d="M1224.579,174.68s19.739-1.408,22.276,5.549S1243.31,178.334,1224.579,174.68Z" style="fill:#fff"/><path d="M1192.4,244.209s-28.626-34.9,2.987-60.994c0,0,1.213-7.93-7.449-2.524S1157.7,219.69,1192.4,244.209Z" style="fill:#fff"/><path d="M1161.355,255.314s-36.387-1.726-46.065,30.042c0,0-9,42.55-11.864,45.419s-14.525,45.215-11.2,55.8c0,0,22.5,26.651,36.62,33.259,0,0,41.707,30.838,47.887,44.277,0,0,10-3.466-2.07-17.273,0,0,11.316,6.61,15.3,18.663,0,0,9.536-1.576,2.624-13.241a55.749,55.749,0,0,0-7.3-9.351" style="fill:none;stroke:#000;stroke-miterlimit:10;stroke-width:2.5705750204625515px"/><path d="M1185.237,442.861c.013.013.026.039.052.051.4.553,3.937,5.28,7.3,9.351,2.65,3.2,5.2,5.985,6.02,5.985,1.941,0,1.941-.272,1.941-.272a29.137,29.137,0,0,0-1.8-13.288l-7.334-10.353a25.763,25.763,0,0,1,7.334,10.353l3.114,4.406s3.448,3.2-.188-10.4c-.877-3.277-2.166-7.53-4.008-13.042,0,0-27.712-32.2-30.915-35.4-1.621-1.618-9.364-8.18-16.643-14.266-7.126-5.971-13.8-11.5-13.8-11.5" style="fill:none;stroke:#000;stroke-miterlimit:10;stroke-width:0.3213218775578191px"/><path d="M1158.973,318.386s-4.111,44.212-8.861,57.61" style="fill:none;stroke:#000;stroke-linecap:round;stroke-miterlimit:10;stroke-width:2.5705750204625515px"/><path d="M1269.333,256.4s.24-.028.691-.043c.519-.027,1.313-.043,2.319-.016a39.6,39.6,0,0,1,6.357.738,36.86,36.86,0,0,1,15.214,6.743c.191.138.383.284.554.435,4.84,3.825,9.347,9.469,12.457,17.775q.308.835.6,1.7c.16.482.315.973.469,1.465,0,0,1.577,7.373,3.625,16.186,2.86,12.345,6.649,27.5,8.319,29.2l.009,0c2.868,2.864,14.587,45.194,11.291,55.786a255.939,255.939,0,0,1-22.408,23.148q-1.428,1.265-2.852,2.457l-.7.581a63.285,63.285,0,0,1-8.472,6l-.021.014c-.727.421-1.436.8-2.127,1.119,0,0-25.243,18.733-39.332,33.384l-.024.031c-.477.486-.938.975-1.377,1.458-3.333,3.584-5.88,6.866-7.081,9.489,0,0-9.989-3.451,2.057-17.278,0,0-11.315,6.626-15.283,18.685,0,0-9.52-1.562-2.641-13.237a56.148,56.148,0,0,1,7.278-9.36" style="fill:none;stroke:#000;stroke-miterlimit:10;stroke-width:2.5705750204625515px"/><path d="M1238.307,442.817c-.013.013-.026.039-.051.052-.4.553-3.929,5.285-7.28,9.363-2.645,3.2-5.188,5.993-6.011,5.994-1.927,0-1.928-.268-1.928-.268a29.147,29.147,0,0,1,1.776-13.292,25.776,25.776,0,0,1,7.317-10.365l-7.317,10.365-3.107,4.411s-3.455,3.2.159-10.4c.871-3.278,2.153-7.533,4-13.049,0,0,27.658-32.245,30.843-35.448,1.618-1.621,9.363-8.195,16.62-14.293,7.128-5.982,13.794-11.528,13.794-11.528" style="fill:none;stroke:#000;stroke-miterlimit:10;stroke-width:2.5705750204625515px"/><path d="M1264.37,318.3s4.184,44.205,8.956,57.6" style="fill:none;stroke:#000;stroke-linecap:round;stroke-miterlimit:10;stroke-width:2.5705750204625515px"/><line x1="1221.865" y1="438.679" x2="1201.673" y2="438.696" style="fill:none"/><path d="M1158.415,323.987s11.969,13.631,27.931,8.078" style="fill:none;stroke:#000;stroke-linecap:round;stroke-miterlimit:10;stroke-width:1.2852875102312795px"/><path d="M1264.377,327.113s-13.166,3.01-19.385-3.2" style="fill:none;stroke:#000;stroke-linecap:round;stroke-miterlimit:10;stroke-width:1.2852875102312795px"/><path d="M1103.746,331.287s13.353-10.6,21.144-2.822" style="fill:none;stroke:#000;stroke-linecap:round;stroke-miterlimit:10;stroke-width:1.2852875102312795px"/><path d="M1164,536.023a7.774,7.774,0,0,1-5.327,7.6l.423,14.588c4.132,7.7.016,19.266.016,19.266l-42.21,45.573-3.6-2.105-.386-.231c-26.025,2.193-15.214-25.848-14.893-26.67l.013-.013.013-.013c6.583-12.113,10.69-34.943,10.69-34.943l-1.666-9.356c-12.67-12.649-9.92-29.155-9.92-29.155-8.544-11.56-4.45-49.814-4.45-49.814l-.02-23.662c-.021-25.873,25.291-35.675,25.291-35.675l50.8,42.141-10.521,6.821c6,8.877.024,29.523.024,29.523,2.895,2.89.011,12.789.011,12.789C1168.621,507.435,1164,536.023,1164,536.023Z" style="fill:#fff;stroke:#000;stroke-miterlimit:10;stroke-width:2.3056034445762634px"/><line x1="1112.92" y1="620.717" x2="1160.863" y2="568.732" style="fill:none;stroke:#000;stroke-miterlimit:10;stroke-width:0.9639656326734597px"/><path d="M1107.082,549.723l51.594-6.1s-26.278,18.307-49.935,15.452" style="fill:none;stroke:#000;stroke-miterlimit:10;stroke-width:0.9639656326734597px"/><path d="M1127.11,605.331l-13.8,15.615-.386-.231c-26.025,2.193-15.214-25.848-14.893-26.67l.013-.013.013-.013C1098.721,593.491,1118.6,578.257,1127.11,605.331Z"/><path d="M1092.707,470.755l14.792-.012a7.359,7.359,0,0,1,7.294,6.339l3.784,27.057a11.791,11.791,0,0,1-8.65,13.029l-12.775,3.393" style="fill:none;stroke:#000;stroke-miterlimit:10;stroke-width:1.2852875102312795px"/><path d="M1092.042,479.539l23.092-.019" style="fill:none;stroke:#000;stroke-miterlimit:10;stroke-width:1.2852875102312795px"/><path d="M1091.733,492.244l9.2-.6a2.761,2.761,0,0,1,2.926,2.483l.592,5.991a4.294,4.294,0,0,1-4.269,4.716l-7.743.006" style="fill:none;stroke:#000;stroke-miterlimit:10;stroke-width:1.2852875102312795px"/><polygon points="1108.03 562.672 1124.789 562.658 1124.793 567.704 1107.098 568.776 1108.03 562.672"/><path d="M1122.587,592.036s4.516,5.21,4.518,8.251" style="fill:none;stroke:#000;stroke-linecap:round;stroke-miterlimit:10;stroke-width:1.2852875102312795px"/><path d="M1122.514,504.817s3.92,11.51-6.071,13.365" style="fill:none;stroke:#000;stroke-linecap:round;stroke-miterlimit:10;stroke-width:0.6426437551156382px"/><path d="M1151.613,491.6s-11.948.01-12.812,6.608" style="fill:none;stroke:#000;stroke-linecap:round;stroke-miterlimit:10;stroke-width:1.2852875102312795px"/><path d="M1158.3,502.688a8,8,0,0,0-5.043,2.1" style="fill:none;stroke:#000;stroke-linecap:round;stroke-miterlimit:10;stroke-width:1.2852875102312795px"/><path d="M1161.424,535.415a6.058,6.058,0,0,1-5.618,6.521" style="fill:none;stroke:#000;stroke-linecap:round;stroke-miterlimit:10;stroke-width:1.2852875102312795px"/><path d="M1112.941,420.268A30.117,30.117,0,0,0,1099.6,445.7" style="fill:none;stroke:#000;stroke-linecap:round;stroke-miterlimit:10;stroke-width:1.2852875102312795px"/><polyline points="1108.078 570.205 1126.601 569.292 1126.597 564.107" style="fill:none;stroke:#000;stroke-linecap:round;stroke-miterlimit:10;stroke-width:0.6426437551156382px"/><line x1="1116.192" y1="617.681" x2="1119.622" y2="620.119" style="fill:none;stroke:#000;stroke-linecap:round;stroke-miterlimit:10;stroke-width:0.6426437551156382px"/><line x1="1118.866" y1="614.507" x2="1122.295" y2="616.945" style="fill:none;stroke:#000;stroke-linecap:round;stroke-miterlimit:10;stroke-width:0.6426437551156382px"/><line x1="1121.431" y1="611.79" x2="1124.861" y2="614.228" style="fill:none;stroke:#000;stroke-linecap:round;stroke-miterlimit:10;stroke-width:0.6426437551156382px"/><line x1="1123.997" y1="609.072" x2="1127.426" y2="611.51" style="fill:none;stroke:#000;stroke-linecap:round;stroke-miterlimit:10;stroke-width:0.6426437551156382px"/><line x1="1126.562" y1="606.355" x2="1129.992" y2="608.793" style="fill:none;stroke:#000;stroke-linecap:round;stroke-miterlimit:10;stroke-width:0.6426437551156382px"/><line x1="1129.128" y1="603.637" x2="1132.557" y2="606.075" style="fill:none;stroke:#000;stroke-linecap:round;stroke-miterlimit:10;stroke-width:0.6426437551156382px"/><line x1="1131.693" y1="600.92" x2="1135.123" y2="603.358" style="fill:none;stroke:#000;stroke-linecap:round;stroke-miterlimit:10;stroke-width:0.6426437551156382px"/><line x1="1134.259" y1="598.202" x2="1137.688" y2="600.64" style="fill:none;stroke:#000;stroke-linecap:round;stroke-miterlimit:10;stroke-width:0.6426437551156382px"/><line x1="1136.824" y1="595.485" x2="1140.254" y2="597.923" style="fill:none;stroke:#000;stroke-linecap:round;stroke-miterlimit:10;stroke-width:0.6426437551156382px"/><line x1="1139.39" y1="592.767" x2="1142.819" y2="595.205" style="fill:none;stroke:#000;stroke-linecap:round;stroke-miterlimit:10;stroke-width:0.6426437551156382px"/><line x1="1141.955" y1="590.05" x2="1145.385" y2="592.488" style="fill:none;stroke:#000;stroke-linecap:round;stroke-miterlimit:10;stroke-width:0.6426437551156382px"/><line x1="1144.52" y1="587.332" x2="1147.95" y2="589.77" style="fill:none;stroke:#000;stroke-linecap:round;stroke-miterlimit:10;stroke-width:0.6426437551156382px"/><line x1="1147.086" y1="584.615" x2="1150.516" y2="587.053" style="fill:none;stroke:#000;stroke-linecap:round;stroke-miterlimit:10;stroke-width:0.6426437551156382px"/><line x1="1149.651" y1="581.897" x2="1153.081" y2="584.335" style="fill:none;stroke:#000;stroke-linecap:round;stroke-miterlimit:10;stroke-width:0.6426437551156382px"/><line x1="1152.217" y1="579.18" x2="1155.647" y2="581.618" style="fill:none;stroke:#000;stroke-linecap:round;stroke-miterlimit:10;stroke-width:0.6426437551156382px"/><line x1="1154.782" y1="576.462" x2="1158.212" y2="578.9" style="fill:none;stroke:#000;stroke-linecap:round;stroke-miterlimit:10;stroke-width:0.6426437551156382px"/><path d="M1329.8,447.842l.017,23.664s.382,3.533.681,8.783c.2,3.618.365,8.058.328,12.708a124.219,124.219,0,0,1-.687,12.595c-.733,6.46-2.149,12.281-4.683,15.727l-.005.01s2.778,16.5-9.873,29.169l-1.65,9.353,0,.007c.022.137.271,1.473.717,3.591l.009.029c1.451,6.929,5.032,22.169,10.021,31.3l.011.013.012.013c.05.121.327.85.682,2,2.055,6.519,6.615,26.53-15.534,24.7l-.381.235-3.6,2.109-2.72-2.93-18.091-19.459-2.534-2.727-2.545-2.739-2.536-2.734-2.544-2.732-2.546-2.74-2.534-2.727-2.545-2.739-2.536-2.734-1.156-1.239a37.146,37.146,0,0,1-1.762-8.734c-.252-3.443.026-7.322,1.746-10.539l.4-14.581a7.783,7.783,0,0,1-5.338-7.6s-4.669-28.579,5.653-33.344c0,0-2.9-9.89-.014-12.789,0,0-3.232-11.114-2.591-20.534a18.506,18.506,0,0,1,2.566-8.989l-10.313-6.665-.215-.139,1.592-1.319.024-.031,41.459-34.5.028-.016,7.63-6.353s.251.1.707.3a1.393,1.393,0,0,0,.128.06c.2.087.431.2.7.322C1311.462,415.491,1329.777,425.84,1329.8,447.842Z" style="fill:#fff;stroke:#000;stroke-miterlimit:10;stroke-width:2.3056034445762634px"/><line x1="1309.847" y1="621.503" x2="1261.818" y2="569.597" style="fill:none;stroke:#000;stroke-miterlimit:10;stroke-width:0.9639656326734597px"/><path d="M1315.567,550.5l-51.6-6.011s26.308,18.263,49.96,15.369" style="fill:none;stroke:#000;stroke-miterlimit:10;stroke-width:0.9639656326734597px"/><path d="M1309.845,621.5l-.381.235-2.893-3.264-2.762-3.11-8.082-9.115-.092-.1c4.665-14.939,12.805-17.02,19.287-15.782a25.19,25.19,0,0,1,9.752,4.419l.011.013.012.013c.05.121.327.85.682,2C1327.434,603.32,1331.994,623.331,1309.845,621.5Z"/><path d="M1329.812,471.508l-14.792.012a7.358,7.358,0,0,0-7.283,6.352L1304,504.935a11.791,11.791,0,0,0,8.672,13.014l12.781,3.372" style="fill:none;stroke:#000;stroke-miterlimit:10;stroke-width:1.2852875102312795px"/><path d="M1330.491,480.291l-23.091.019" style="fill:none;stroke:#000;stroke-miterlimit:10;stroke-width:1.2852875102312795px"/><path d="M1330.821,493l-9.2-.583a2.761,2.761,0,0,0-2.922,2.488l-.582,5.992a4.294,4.294,0,0,0,4.277,4.709l7.742-.007" style="fill:none;stroke:#000;stroke-miterlimit:10;stroke-width:1.2852875102312795px"/><polygon points="1314.644 563.449 1314.653 563.478 1315.585 569.556 1312.482 569.369 1297.89 568.511 1297.88 563.467 1311.659 563.453 1314.644 563.449"/><path d="M1300.133,592.838s-4.507,5.217-4.505,8.258" style="fill:none;stroke:#000;stroke-linecap:round;stroke-miterlimit:10;stroke-width:1.2852875102312795px"/><path d="M1300.061,505.619s-3.9,11.517,6.094,13.355" style="fill:none;stroke:#000;stroke-linecap:round;stroke-miterlimit:10;stroke-width:0.6426437551156382px"/><path d="M1270.941,492.449s11.948-.01,12.822,6.586" style="fill:none;stroke:#000;stroke-linecap:round;stroke-miterlimit:10;stroke-width:1.2852875102312795px"/><path d="M1264.276,503.549a8,8,0,0,1,5.047,2.1" style="fill:none;stroke:#000;stroke-linecap:round;stroke-miterlimit:10;stroke-width:1.2852875102312795px"/><path d="M1261.2,536.281a6.059,6.059,0,0,0,5.629,6.512" style="fill:none;stroke:#000;stroke-linecap:round;stroke-miterlimit:10;stroke-width:1.2852875102312795px"/><path d="M1309.495,421.054a30.12,30.12,0,0,1,13.381,25.405" style="fill:none;stroke:#000;stroke-linecap:round;stroke-miterlimit:10;stroke-width:1.2852875102312795px"/><polyline points="1314.606 570.983 1296.081 570.101 1296.077 564.916" style="fill:none;stroke:#000;stroke-linecap:round;stroke-miterlimit:10;stroke-width:0.6426437551156382px"/><line x1="1306.57" y1="618.472" x2="1303.144" y2="620.916" style="fill:none;stroke:#000;stroke-linecap:round;stroke-miterlimit:10;stroke-width:0.6426437551156382px"/><line x1="1303.891" y1="615.303" x2="1300.466" y2="617.747" style="fill:none;stroke:#000;stroke-linecap:round;stroke-miterlimit:10;stroke-width:0.6426437551156382px"/><line x1="1301.321" y1="612.59" x2="1297.896" y2="615.034" style="fill:none;stroke:#000;stroke-linecap:round;stroke-miterlimit:10;stroke-width:0.6426437551156382px"/><line x1="1298.751" y1="609.877" x2="1295.326" y2="612.32" style="fill:none;stroke:#000;stroke-linecap:round;stroke-miterlimit:10;stroke-width:0.6426437551156382px"/><line x1="1296.181" y1="607.163" x2="1292.756" y2="609.607" style="fill:none;stroke:#000;stroke-linecap:round;stroke-miterlimit:10;stroke-width:0.6426437551156382px"/><line x1="1293.611" y1="604.45" x2="1290.186" y2="606.894" style="fill:none;stroke:#000;stroke-linecap:round;stroke-miterlimit:10;stroke-width:0.6426437551156382px"/><line x1="1291.041" y1="601.737" x2="1287.616" y2="604.181" style="fill:none;stroke:#000;stroke-linecap:round;stroke-miterlimit:10;stroke-width:0.6426437551156382px"/><line x1="1288.471" y1="599.024" x2="1285.046" y2="601.467" style="fill:none;stroke:#000;stroke-linecap:round;stroke-miterlimit:10;stroke-width:0.6426437551156382px"/><line x1="1285.902" y1="596.31" x2="1282.476" y2="598.754" style="fill:none;stroke:#000;stroke-linecap:round;stroke-miterlimit:10;stroke-width:0.6426437551156382px"/><line x1="1283.332" y1="593.597" x2="1279.906" y2="596.041" style="fill:none;stroke:#000;stroke-linecap:round;stroke-miterlimit:10;stroke-width:0.6426437551156382px"/><line x1="1280.762" y1="590.884" x2="1277.336" y2="593.327" style="fill:none;stroke:#000;stroke-linecap:round;stroke-miterlimit:10;stroke-width:0.6426437551156382px"/><line x1="1278.192" y1="588.17" x2="1274.766" y2="590.614" style="fill:none;stroke:#000;stroke-linecap:round;stroke-miterlimit:10;stroke-width:0.6426437551156382px"/><line x1="1275.622" y1="585.457" x2="1272.196" y2="587.901" style="fill:none;stroke:#000;stroke-linecap:round;stroke-miterlimit:10;stroke-width:0.6426437551156382px"/><line x1="1273.052" y1="582.744" x2="1269.626" y2="585.188" style="fill:none;stroke:#000;stroke-linecap:round;stroke-miterlimit:10;stroke-width:0.6426437551156382px"/><line x1="1270.482" y1="580.031" x2="1267.056" y2="582.474" style="fill:none;stroke:#000;stroke-linecap:round;stroke-miterlimit:10;stroke-width:0.6426437551156382px"/><line x1="1267.912" y1="577.317" x2="1264.486" y2="579.761" style="fill:none;stroke:#000;stroke-linecap:round;stroke-miterlimit:10;stroke-width:0.6426437551156382px"/><path d="M1195.463,321.231a7.312,7.312,0,0,1,7.275-6.206c10.581.071,30.73.654,30.733,4.079,0,4.644,9.456,23.163.019,23.171-6.482,0-23.353-1.136-33.284-1.851a7.042,7.042,0,0,1-6.452-8.1Z" style="fill:none;stroke:#000;stroke-miterlimit:10;stroke-width:1.2852875102312795px"/><path d="M1195.463,321.231s20.774,4.785,38.741,1.459" style="fill:none;stroke:#000;stroke-miterlimit:10;stroke-width:1.2852875102312795px"/><ellipse cx="1206.765" cy="331.154" rx="6.191" ry="5.239" style="fill:none;stroke:#000;stroke-miterlimit:10;stroke-width:1.2852875102312795px"/><ellipse cx="1224.706" cy="332.106" rx="5.485" ry="6.245" style="fill:none;stroke:#000;stroke-miterlimit:10;stroke-width:1.2852875102312795px"/><path d="M1155.645,347.315s9.867,9.063,27.677,5.1,28.746-5.272,31.532-5.275l19.37-.016" style="fill:none;stroke:#000;stroke-linecap:round;stroke-miterlimit:10;stroke-width:1.2852875102312795px"/><path d="M1233.038,315.734s3.259.975,3.261,3.039" style="fill:none;stroke:#000;stroke-linecap:round;stroke-miterlimit:10;stroke-width:0.9639656326734597px"/><path d="M1158.975,320.683a14.722,14.722,0,0,0,6.512,5.267" style="fill:none;stroke:#000;stroke-linecap:round;stroke-miterlimit:10;stroke-width:0.6426437551156382px"/><path d="M1287.1,338.3c1.956-9.2,15.475-9.653,24.543-8.873.712.062,1.395.133,2.039.207,3.57.4,6.078.912,6.257.95l.009,0" style="fill:none;stroke:#000;stroke-linecap:round;stroke-miterlimit:10;stroke-width:0.9639656326734597px"/><path d="M1320.6,334.319s-12.058-2.705-12.49.011" style="fill:none;stroke:#000;stroke-linecap:round;stroke-miterlimit:10;stroke-width:0.9639656326734597px"/><path d="M1312.184,405.274s6.079-4.241,2.213-16.294" style="fill:none;stroke:#000;stroke-linecap:round;stroke-miterlimit:10;stroke-width:0.9639656326734597px"/><path d="M1331.238,386.38s.451-3.114-8.414-3.107" style="fill:none;stroke:#000;stroke-linecap:round;stroke-miterlimit:10;stroke-width:0.9639656326734597px"/><path d="M1092.226,386.578s12.291-13.714,18.781-6.334" style="fill:none;stroke:#000;stroke-linecap:round;stroke-miterlimit:10;stroke-width:0.9639656326734597px"/><path d="M1102.063,335.176s8.252-3.768,13.467-1.729" style="fill:none;stroke:#000;stroke-linecap:round;stroke-miterlimit:10;stroke-width:0.6426437551156382px"/><path d="M1158.924,259.424s17.124,30.941,48.081,32.871" style="fill:none;stroke:#000;stroke-linecap:round;stroke-miterlimit:10;stroke-width:0.9639656326734597px"/><path d="M1276.712,263.725s-13.835,15.327-24.421,20.386" style="fill:none;stroke:#000;stroke-linecap:round;stroke-miterlimit:10;stroke-width:0.9639656326734597px"/><path d="M1194.96,293.2s5.693,1.869,8.788,1.3" style="fill:none;stroke:#000;stroke-linecap:round;stroke-miterlimit:10;stroke-width:0.9639656326734597px"/><polygon points="1119.605 212.854 1110.168 220.2 1110.193 249.526 1119.642 257.013 1119.605 212.854" style="fill:#fff;stroke:#000;stroke-linecap:round;stroke-miterlimit:10;stroke-width:2.5705750204625515px"/><path d="M1108.081,417.26c-40.077-21.434-59.593-46.532-62.426-77.289-5.251-56.977,61.9-110.342,64.519-112.44l.011,12.763c-.6.481-59.053,47.311-54.289,98.764,2.508,27.085,23.64,52.42,60.467,72.114Z" style="fill:#fff;stroke:#000;stroke-miterlimit:10;stroke-width:1.2852875102312795px"/><polygon points="1305.928 352.316 1305.949 381.177 1305.977 411.984 1305.976 412.887 1305.999 436.629 1306.029 470.191 1261.672 470.224 1160.898 470.316 1117.563 470.348 1117.518 412.139 1117.517 411.597 1117.469 352.471 1119.72 352.467 1154.919 352.438 1166.264 352.431 1183.325 352.417 1268.478 352.349 1305.928 352.316" style="fill:#606060"/></g></g></svg>